<?xml version="1.0" encoding="UTF-8" standalone="no"?>
<!-- Created with Inkscape (http://www.inkscape.org/) -->

<svg
   width="197.80081mm"
   height="197.80081mm"
   viewBox="0 0 197.80081 197.80081"
   version="1.1"
   id="svg1"
   xml:space="preserve"
   inkscape:version="1.3 (1:1.3+202307231459+0e150ed6c4)"
   sodipodi:docname="mapl.svg"
   xmlns:inkscape="http://www.inkscape.org/namespaces/inkscape"
   xmlns:sodipodi="http://sodipodi.sourceforge.net/DTD/sodipodi-0.dtd"
   xmlns="http://www.w3.org/2000/svg"
   xmlns:svg="http://www.w3.org/2000/svg"><sodipodi:namedview
     id="namedview1"
     pagecolor="#ffffff"
     bordercolor="#000000"
     borderopacity="0.25"
     inkscape:showpageshadow="2"
     inkscape:pageopacity="0.0"
     inkscape:pagecheckerboard="0"
     inkscape:deskcolor="#d1d1d1"
     inkscape:document-units="mm"
     showguides="true"
     inkscape:zoom="0.6629952"
     inkscape:cx="211.16292"
     inkscape:cy="478.88733"
     inkscape:window-width="1896"
     inkscape:window-height="1019"
     inkscape:window-x="12"
     inkscape:window-y="49"
     inkscape:window-maximized="1"
     inkscape:current-layer="layer1" /><defs
     id="defs1" /><g
     inkscape:label="Layer 1"
     inkscape:groupmode="layer"
     id="layer1"
     transform="translate(-7.4864981,-32.394447)"><g
       id="g2"
       transform="translate(10.583333)"><path
         style="fill:#000000;fill-opacity:1"
         d="m 90.014817,228.40931 c -1.10107,-1.54985 -1.42885,-2.8026 -1.64415,-6.28385 -0.26354,-4.2613 -0.75687,-6.48751 -2.37458,-10.71563 -0.69597,-1.81901 -1.89888,-5.50994 -2.67314,-8.20208 -0.77425,-2.69214 -2.42392,-7.92946 -3.66593,-11.6385 l -2.25819,-6.7437 -1.38973,-1.03304 c -1.71806,-1.27709 -2.16925,-2.42104 -1.66509,-4.2217 0.30994,-1.107 0.28222,-1.26804 -0.49116,-2.85326 -0.47588,-0.97542 -0.81964,-2.09977 -0.81964,-2.68079 0,-2.17387 -1.16415,-6.29715 -3.30533,-11.70714 -2.53929,-6.41585 -6.37942,-17.56259 -7.69579,-22.33855 -0.49852,-1.8087 -1.07936,-3.55253 -1.29077,-3.87517 -0.35127,-0.53611 -0.31866,-0.68581 0.37877,-1.73874 1.07938,-1.62957 4.39606,-5.54631 8.44753,-9.97589 l 3.47298,-3.7971 3.28244,-6.65394 c 4.51089,-9.14418 7.60844,-17.071667 10.18504,-26.066317 2.07048,-7.227818 3.85485,-16.126244 4.51668,-22.524077 0.64029,-6.189591 1.61629,-7.851882 3.70393,-6.308422 0.66363,0.49064 0.8331,0.520017 1.20748,0.209312 0.71909,-0.596797 0.98457,-1.587911 1.05939,-3.955056 0.0391,-1.236927 0.2801,-3.778947 0.53557,-5.648933 0.40352,-2.953638 0.53663,-3.429925 1.01401,-3.628118 0.92225,-0.382888 8.317333,-1.373037 8.991323,-1.203875 0.34758,0.08724 0.8783,0.576131 1.17939,1.086435 0.60963,1.033256 1.6289,1.247566 2.56522,0.539363 0.28248,-0.213653 0.95094,-0.392247 1.48548,-0.396875 1.84949,-0.01601 3.38775,-1.961545 3.39937,-4.299395 0.003,-0.623138 0.36586,-2.145009 0.80614,-3.381936 0.44028,-1.236927 0.86834,-2.516849 0.95125,-2.844271 0.22379,-0.883751 0.78982,-0.724481 1.55969,0.438863 0.76146,1.150639 1.89761,1.753337 2.85314,1.513513 0.34644,-0.08695 1.4678,-0.933874 2.49192,-1.882055 1.67125,-1.547319 1.97478,-1.723967 2.96227,-1.723967 1.39097,0 3.35057,0.485977 3.71105,0.920333 0.19693,0.237279 0.16137,0.427387 -0.12429,0.66446 -0.22007,0.182646 -0.40013,0.494787 -0.40013,0.693646 0,0.198859 0.67908,1.725803 1.50907,3.393209 l 1.50907,3.031647 -0.57343,1.667624 c -1.31203,3.815544 -1.30268,6.18894 0.0308,7.807155 0.3352,0.406799 0.68985,0.959262 0.78809,1.227695 0.23271,0.635839 -0.59009,2.328584 -1.9491,4.009857 -0.58814,0.727604 -1.21049,1.835553 -1.38301,2.46211 -0.35996,1.30735 -1.49827,2.555287 -3.70492,4.061749 -0.83848,0.572422 -1.88438,1.392554 -2.32423,1.822516 -0.43984,0.429963 -1.00397,0.78566 -1.25361,0.790439 -0.24965,0.0048 -1.32063,0.826278 -2.37996,1.825553 l -1.92606,1.816863 0.22321,1.423412 c 0.12277,0.782877 0.14525,1.717551 0.05,2.077052 -0.16797,0.633741 -0.63978,10.165344 -0.58242,11.766144 0.0156,0.43656 0.10929,1.8864 0.20811,3.22186 0.14348,1.93896 0.0901,2.68518 -0.26508,3.70417 -0.24461,0.70183 -0.50658,2.16902 -0.58214,3.26042 -0.0756,1.09141 -0.33061,2.55213 -0.56676,3.24604 -0.39854,1.17109 -0.397,1.383157 0.0215,2.953837 0.55241,2.07312 0.56891,3.03891 0.0642,3.75945 -0.34487,0.49237 -0.33057,0.66216 0.13229,1.57003 0.36757,0.72097 0.51898,1.5523 0.51898,2.84953 0,1.00738 0.12644,2.26213 0.28098,2.78833 0.24475,0.83336 0.15784,1.3304 -0.67398,3.8544 -0.66763,2.02582 -1.26994,4.8519 -2.00182,9.39271 -1.08057,6.70427 -1.66413,8.91238 -2.83389,10.7232 -1.1408,1.76599 -0.79241,3.90503 0.93718,5.75401 0.89402,0.95574 1.1037,3.07469 0.45299,4.57773 -1.30263,3.00888 -1.71771,4.2999 -1.71771,5.34252 0,1.54924 -0.5903,2.85861 -1.78,3.94833 -0.95098,0.87107 -0.99265,0.98298 -1.09097,2.93009 -0.0918,1.81695 -0.20393,2.17532 -1.09449,3.4968 -0.54574,0.8098 -1.25255,2.29149 -1.57069,3.29264 -0.31815,1.00115 -1.09089,2.84662 -1.7172,4.10104 -1.30776,2.61925 -1.85865,4.22177 -2.28035,6.63343 -0.16415,0.93876 -0.50165,2.24845 -0.74999,2.91042 -0.40839,1.0886 -0.41314,1.27942 -0.0498,1.99734 0.68237,1.34816 0.52686,4.16418 -0.36686,6.64336 l -0.77341,2.14544 0.57749,1.70967 c 0.8477,2.50959 0.77003,3.77382 -0.33915,5.52052 -1.883853,2.96664 -2.541503,5.25178 -2.928223,10.17476 -0.21692,2.76146 -0.81787,5.27243 -1.60688,6.71405 -0.48241,0.88143 -0.63367,1.56314 -0.63367,2.85583 0,1.29497 -0.22097,2.28801 -0.93097,4.18365 -0.51204,1.36709 -1.03222,3.02754 -1.15596,3.68987 -0.12373,0.66233 -0.37541,1.38551 -0.55927,1.60705 -0.48355,0.58263 -2.79947,2.24851 -3.12592,2.24851 -0.15249,0 -0.50987,-0.32743 -0.79418,-0.72761 z m 2.38796,-1.83963 c 0.69235,-0.67607 1.00334,-1.21089 1.00334,-1.72549 0,-0.41016 0.43808,-1.84451 0.97352,-3.18745 0.74013,-1.85635 0.99704,-2.91742 1.07165,-4.42607 0.065,-1.31355 0.27446,-2.31305 0.61971,-2.95663 0.67352,-1.2555 1.56801,-4.75803 1.57001,-6.14768 0.003,-1.73003 0.72867,-6.07401 1.27544,-7.62966 0.2763,-0.78612 0.93147,-2.05313 1.455943,-2.81557 1.29587,-1.88386 1.43758,-2.83765 0.71047,-4.78191 -0.69739,-1.8648 -0.63303,-3.35254 0.24652,-5.69876 0.74486,-1.9869 0.69331,-4.79201 -0.10426,-5.6733 -0.49138,-0.54298 -0.49012,-0.57313 0.0713,-1.6972 0.31435,-0.62942 0.75357,-2.10399 0.97605,-3.27682 0.5131,-2.70482 1.10526,-4.41855 2.45192,-7.09586 0.59002,-1.17302 1.37387,-3.0547 1.7419,-4.18151 0.36803,-1.12682 1.09403,-2.64016 1.61333,-3.363 0.71315,-0.99265 0.90371,-1.47555 0.77874,-1.97344 -0.37087,-1.47769 0.13704,-3.00468 1.50005,-4.50977 1.1909,-1.31503 1.30399,-1.55295 1.30399,-2.74318 0,-0.83811 0.29343,-2.04114 0.82212,-3.37063 1.87935,-4.72602 1.89532,-4.98555 0.41333,-6.71693 -1.84389,-2.15417 -1.9152,-3.93122 -0.29001,-7.22696 1.16374,-2.35997 1.24934,-2.70088 2.23836,-8.91469 0.94461,-5.93482 1.82914,-9.80777 2.73526,-11.9764 0.19486,-0.46637 0.26998,-1.08304 0.16693,-1.37038 -0.10305,-0.28734 -0.26601,-1.57617 -0.36213,-2.86407 -0.10298,-1.3797 -0.33634,-2.57231 -0.56807,-2.90315 -0.49771,-0.71058 -0.49946,-1.50155 -0.005,-2.45382 0.40767,-0.78579 0.35013,-1.37604 -0.31238,-3.20427 -0.43037,-1.18765 -0.37012,-1.959777 0.28477,-3.649197 0.22564,-0.58209 0.41548,-1.69886 0.42187,-2.48172 0.006,-0.78286 0.26881,-2.36187 0.58316,-3.50891 0.5346,-1.95071 0.5499,-2.2521 0.23661,-4.66204 -0.24787,-1.90673 -0.26836,-3.47117 -0.0788,-6.01817 0.14088,-1.892925 0.19698,-3.844757 0.12467,-4.337409 -0.0723,-0.492651 0.0162,-1.722262 0.19678,-2.732468 0.25317,-1.416638 0.25767,-2.088792 0.0197,-2.938756 -0.17732,-0.633323 -0.21739,-1.336532 -0.0942,-1.653417 0.25437,-0.654388 4.30156,-4.328417 4.77764,-4.337122 0.18148,-0.0033 0.77679,-0.403281 1.32291,-0.888804 0.54613,-0.485523 1.70733,-1.364015 2.58045,-1.952205 2.03412,-1.3703 2.35607,-1.7464 3.02283,-3.531212 0.30233,-0.809267 1.07746,-2.089702 1.72252,-2.845411 1.59557,-1.869249 1.63967,-2.125762 0.6416,-3.731325 -0.5935,-0.954736 -0.88237,-1.789258 -0.96523,-2.788436 -0.1229,-1.482013 0.52898,-5.050136 1.13683,-6.22254 0.30771,-0.593513 0.21361,-0.903706 -1.00334,-3.307292 -0.73859,-1.458793 -1.41082,-3.125404 -1.49384,-3.70358 -0.14452,-1.006435 -0.20141,-1.059833 -1.33522,-1.253181 -1.12936,-0.19259 -1.23362,-0.154548 -2.24896,0.820591 -2.05262,1.971372 -3.27661,2.674443 -4.65596,2.674443 -0.97892,0 -1.44957,-0.157056 -2.09293,-0.698411 -0.4759,-0.400438 -0.92584,-0.597983 -1.05461,-0.46302 -0.34919,0.365962 -1.06639,3.015531 -1.06639,3.939556 0,1.483236 -0.80582,3.636861 -1.69261,4.523649 -0.48601,0.486012 -1.34943,0.978052 -2.02477,1.153859 -0.64758,0.168582 -1.5346,0.433554 -1.97117,0.588825 -1.98768,0.706955 -2.46687,0.623919 -3.67484,-0.63679 l -1.12961,-1.178926 -3.93498,0.556054 -3.934983,0.556054 -0.35404,2.245721 c -0.19472,1.235147 -0.4407,3.794248 -0.54663,5.686892 -0.16218,2.897945 -0.28667,3.593402 -0.78858,4.405518 -0.83387,1.349222 -2.05013,1.697955 -3.11441,0.892976 -0.28248,-0.213653 -0.64357,-0.392247 -0.80244,-0.396875 -0.47052,-0.01371 -0.84926,1.705212 -1.42643,6.473877 -1.96983,16.275145 -7.05035,32.998635 -14.67561,48.307622 -3.0546,6.13262 -3.66372,7.08382 -6.50951,10.16529 -6.06163,6.56364 -9.09468,10.30309 -8.88901,10.95927 0.072,0.2298 0.4431,1.54762 0.82461,2.9285 1.57199,5.68976 6.13127,18.81527 8.69486,25.03125 1.42611,3.4579 2.2489,6.46902 2.54202,9.30289 0.1468,1.41925 0.43148,2.45548 0.92634,3.37184 0.66035,1.2228 0.70115,1.47557 0.53914,3.34004 -0.19188,2.20833 -0.26133,2.0629 1.61421,3.38012 1.00273,0.70422 1.17572,1.02599 2.45129,4.55939 1.49471,4.14043 2.68673,7.89717 4.9754,15.68038 0.81749,2.78006 1.95188,6.21619 2.52087,7.63584 1.55662,3.88377 2.08611,6.23741 2.30617,10.25111 0.15675,2.85887 0.31772,3.84915 0.8064,4.96093 0.3358,0.76399 0.7397,1.38907 0.89755,1.38907 0.15784,0 0.73849,-0.44089 1.29033,-0.97974 z"
         id="path1" /><path
         style="fill:#000000;fill-opacity:1;stroke:#000000;stroke-width:0.480999;stroke-linejoin:round;stroke-dasharray:none;stroke-dashoffset:0;stroke-opacity:1"
         d="m 90.514499,226.45077 c -0.500287,-0.98065 -0.780941,-2.62573 -1.143473,-6.70263 -0.288626,-3.24576 -0.689441,-4.88773 -2.221058,-9.09869 -0.635117,-1.74616 -2.187575,-6.57896 -3.449913,-10.73956 -2.308947,-7.61016 -4.427257,-13.87002 -5.2182,-15.42039 -0.234582,-0.45983 -0.913177,-1.22715 -1.507984,-1.70517 -0.59481,-0.47801 -1.162111,-0.97106 -1.260669,-1.09566 -0.09856,-0.1246 -0.115765,-1.05713 -0.03824,-2.07228 0.131728,-1.72484 0.09527,-1.94984 -0.556609,-3.43508 -0.404569,-0.92178 -0.797097,-2.33509 -0.934522,-3.36479 -0.411996,-3.08705 -1.114269,-5.47689 -3.217897,-10.95049 -3.634578,-9.45713 -8.779478,-24.80562 -8.779478,-26.19134 0,-0.72821 2.140305,-3.40984 7.109148,-8.9072 4.147574,-4.58874 5.141761,-6.01088 7.597227,-10.86747 3.516961,-6.9561 6.332384,-13.69487 8.764455,-20.977885 3.066719,-9.183523 4.876792,-17.010324 6.446819,-27.876219 0.498697,-3.451402 1.005864,-6.460522 1.127038,-6.686936 0.21187,-0.395888 0.259008,-0.394547 1.230042,0.03499 0.910762,0.402873 1.084922,0.415234 1.776884,0.126113 1.397068,-0.583732 1.730679,-1.485183 2.084244,-5.631849 0.173006,-2.029047 0.438317,-4.620797 0.589579,-5.759439 l 0.275024,-2.070262 3.815164,-0.508653 3.81516,-0.508654 1.12225,1.04974 c 0.92978,0.86969 1.26964,1.049155 1.98151,1.04634 0.93546,-0.0037 3.82438,-0.835182 4.98241,-1.434026 1.39801,-0.722937 2.34902,-2.476286 2.66339,-4.910389 0.18969,-1.468737 0.65742,-3.400793 0.94976,-3.923181 0.18626,-0.332824 0.29733,-0.311025 1.06172,0.208389 0.65969,0.448273 1.13624,0.580101 2.09702,0.580101 1.46127,0 2.47066,-0.519136 4.433,-2.279933 0.96858,-0.869095 1.4572,-1.150596 1.99716,-1.150596 1.03182,0 1.53255,0.34721 1.7125,1.187474 0.087,0.405984 0.72347,1.997816 1.41449,3.5374 1.14293,2.546432 1.23336,2.863572 1.00133,3.511441 -0.56887,1.58841 -0.94475,3.756472 -0.94791,5.467617 -0.003,1.62187 0.0807,1.980377 0.80359,3.443473 0.91575,1.853321 0.9199,1.829017 -0.65055,3.803184 -0.49769,0.625623 -1.24188,1.851112 -1.65375,2.723309 -0.41189,0.872196 -0.88063,1.741156 -1.04166,1.931024 -0.31905,0.376179 -5.08401,3.943395 -6.18294,4.628756 -1.14069,0.711404 -3.97644,3.340428 -4.32026,4.005313 -0.26036,0.50347 -0.27524,0.853482 -0.0758,1.783339 0.17665,0.823672 0.17979,1.691555 0.0109,3.012937 -0.38811,3.036591 -0.53211,10.898656 -0.24431,13.338926 0.2317,1.964619 0.21106,2.391183 -0.20263,4.1875 -0.25333,1.100029 -0.56384,2.866586 -0.69001,3.925681 -0.12618,1.059095 -0.38803,2.371712 -0.5819,2.916925 -0.46058,1.2953 -0.44174,1.87889 0.11795,3.65286 0.45187,1.43225 0.45363,1.505 0.0645,2.65881 -0.37874,1.12294 -0.37947,1.24388 -0.0137,2.26544 0.2125,0.59355 0.53832,2.31208 0.72404,3.81897 0.33753,2.73872 0.33744,2.74042 -0.22,4.37936 -0.75802,2.2287 -1.52037,5.76719 -2.49283,11.57077 -0.92847,5.54106 -0.97589,5.72367 -2.20372,8.48634 -1.50901,3.39536 -1.42401,4.93935 0.40134,7.29004 0.65346,0.84153 1.00454,1.52043 1.00454,1.94256 0,0.35689 -0.46674,1.89374 -1.03719,3.4152 -0.6046,1.61255 -1.10435,3.38671 -1.19824,4.25383 -0.142,1.31146 -0.286,1.64664 -1.21659,2.83181 -1.36052,1.73269 -1.77915,2.76417 -1.73018,4.26297 0.0336,1.02779 -0.0823,1.40625 -0.77833,2.54258 -0.44978,0.73428 -1.16565,2.25256 -1.59081,3.37396 -0.42517,1.12139 -1.28212,3.16029 -1.90433,4.53089 -1.26036,2.77626 -1.60661,3.80025 -2.32,6.86097 -0.26966,1.15694 -0.6931,2.56203 -0.94099,3.12241 l -0.45069,1.01888 0.50473,0.81667 c 0.71176,1.15165 0.66812,3.40746 -0.11506,5.9481 -0.71246,2.3112 -0.72742,3.00398 -0.11224,5.19635 0.58902,2.09912 0.49328,2.74867 -0.70153,4.75983 -0.515097,0.86704 -1.123624,2.06919 -1.352284,2.67145 -0.472924,1.24564 -1.36667,6.23091 -1.369057,7.63656 -0.0021,1.22545 -0.753438,4.32694 -1.448006,5.97716 -0.31469,0.74767 -0.617384,2.03861 -0.704546,3.00477 -0.08918,0.98857 -0.514109,2.77873 -1.020482,4.29917 -0.477216,1.43289 -0.937824,2.98676 -1.023575,3.45303 -0.146677,0.79757 -1.664888,2.66367 -2.167096,2.66367 -0.107411,0 -0.398833,-0.39897 -0.647605,-0.88661 z"
         id="path2" /></g></g></svg>
