<?xml version="1.0" encoding="UTF-8" standalone="no"?><!--Created with Inkscape (http://www.inkscape.org/)--><svg width="369.579" height="119.733" viewBox="0 0 97.785 31.679" xml:space="preserve" xmlns="http://www.w3.org/2000/svg"><path style="fill:#d0a600;fill-opacity:1;stroke:none;stroke-width:1.181;stroke-linejoin:round" d="M55.203 65.188c-3.316 0-9.956 2.145-9.956 9.828.034 7.04 9.956 16.171 9.956 16.171v-.006s9.83-9.131 9.802-16.165c-.03-7.705-6.486-9.828-9.802-9.828zm0 5.458a4.37 4.37 0 0 1 4.37 4.37 4.37 4.37 0 0 1-4.37 4.369 4.37 4.37 0 0 1-4.369-4.37 4.37 4.37 0 0 1 4.369-4.369z" transform="translate(-45.247 -65.188)"/><path style="font-size:35.2777px;font-family:Questrial;-inkscape-font-specification:Questrial;stroke-width:1.181;stroke-linejoin:round" d="M70.536 89.883V66.529h3.069l8.36 11.077 8.22-11.077h3.07v23.354h-2.646V70.55l-8.643 11.112-8.784-11.112v19.332zm35.313.282q-2.576 0-4.516-1.2-1.905-1.234-2.963-3.316-1.058-2.08-1.058-4.586 0-2.54 1.058-4.586 1.058-2.081 2.963-3.28 1.94-1.235 4.516-1.235 2.187 0 3.74.846 1.587.847 2.574 2.293v-2.857h2.646v17.639h-2.646V87.06q-.987 1.41-2.575 2.257-1.552.847-3.74.847zm.353-2.399q1.975 0 3.316-.917 1.375-.917 2.081-2.434.706-1.552.706-3.352 0-1.834-.706-3.351t-2.081-2.434q-1.34-.917-3.316-.917-1.94 0-3.352.917-1.41.917-2.152 2.434-.74 1.517-.74 3.351 0 1.8.74 3.352.741 1.517 2.152 2.434 1.411.917 3.352.917zm13.193 9.102V72.244h2.646v2.822q.988-1.446 2.54-2.258 1.588-.846 3.775-.846 2.575 0 4.48 1.234 1.94 1.2 2.999 3.281 1.058 2.046 1.058 4.586 0 2.505-1.058 4.586-1.059 2.082-2.999 3.317-1.905 1.199-4.48 1.199-2.187 0-3.775-.847-1.552-.882-2.54-2.293v9.843zm8.608-9.102q1.976 0 3.352-.917 1.41-.917 2.151-2.434.741-1.552.741-3.352 0-1.834-.74-3.351-.741-1.517-2.152-2.434-1.376-.917-3.352-.917-1.94 0-3.316.917t-2.081 2.434q-.706 1.517-.706 3.351 0 1.8.706 3.352.705 1.517 2.081 2.434 1.376.917 3.316.917zm12.383 2.117V65.188h2.645v24.695z" aria-label="Mapl" transform="translate(-45.247 -65.188)"/></svg>