<svg width="364.465" height="93.333" viewBox="0 0 96.431 24.694" xmlns="http://www.w3.org/2000/svg"><path style="font-weight:900;font-size:35.2777px;font-family:'br shape';-inkscape-font-specification:'br shape Heavy';letter-spacing:-1.42875px;fill:#f8c600;stroke-width:1.181;stroke-linejoin:round" d="M46.297 136.059h7.973v-12.277h.247l3.457 7.444h5.715l3.316-7.444h.247v12.277h7.973v-24.695H65.7l-4.833 10.584h-.212l-4.833-10.584h-9.525zm29.263 0h8.396l.952-3.14h8.432l.952 3.14h8.396l-8.89-24.695H84.45zm11.465-9.984 1.976-6.35h.247l1.975 6.35zm15.998 9.984h8.044v-6.139h2.575c6.667 0 10.23-3.351 10.23-9.278 0-5.926-3.563-9.278-10.23-9.278h-10.619zm8.044-13.512v-3.81h2.47c1.516 0 2.151.6 2.151 1.905 0 1.306-.635 1.905-2.152 1.905zm13.917 13.512h17.744v-7.48h-9.701v-17.215h-8.043z" aria-label="MAPL" transform="translate(-46.297 -111.364)"/></svg>